{
  "asset": {
    "generator": "SAASAI Model Fixer",
    "version": "2.0"
  },
  "scene": 0,
  "scenes": [
    {
      "nodes": [0]
    }
  ],
  "nodes": [
    {
      "mesh": 0,
      "name": "AIAgent"
    }
  ],
  "materials": [
    {
      "name": "AgentMaterial",
      "pbrMetallicRoughness": {
        "baseColorFactor": [0.2588, 0.5216, 0.9569, 1.0],
        "metallicFactor": 0.7,
        "roughnessFactor": 0.3
      },
      "emissiveFactor": [0.1, 0.2, 0.5],
      "doubleSided": true
    }
  ],
  "meshes": [
    {
      "name": "AgentSphere",
      "primitives": [
        {
          "attributes": {
            "POSITION": 0,
            "NORMAL": 1,
            "TEXCOORD_0": 2
          },
          "indices": 3,
          "material": 0,
          "mode": 4
        }
      ]
    }
  ],
  "accessors": [
    {
      "bufferView": 0,
      "componentType": 5126,
      "count": 2256,
      "max": [1.0, 1.0, 1.0],
      "min": [-1.0, -1.0, -1.0],
      "type": "VEC3"
    },
    {
      "bufferView": 1,
      "componentType": 5126,
      "count": 2256,
      "type": "VEC3"
    },
    {
      "bufferView": 2,
      "componentType": 5126,
      "count": 2256,
      "type": "VEC2"
    },
    {
      "bufferView": 3,
      "componentType": 5123,
      "count": 10368,
      "type": "SCALAR"
    }
  ],
  "bufferViews": [
    {
      "buffer": 0,
      "byteLength": 27072,
      "byteOffset": 0
    },
    {
      "buffer": 0,
      "byteLength": 27072,
      "byteOffset": 27072
    },
    {
      "buffer": 0,
      "byteLength": 18048,
      "byteOffset": 54144
    },
    {
      "buffer": 0,
      "byteLength": 20736,
      "byteOffset": 72192
    }
  ],
  "buffers": [
    {
      "byteLength": 92928,
      "uri": "model.bin"
    }
  ]
}
